<svg width="30" height="30" viewBox="0 0 30 30" fill="none" xmlns="http://www.w3.org/2000/svg">
<rect width="30" height="30" rx="10" fill="#FF6600"/>
<path fill-rule="evenodd" clip-rule="evenodd" d="M11.8889 11.1111C11.8889 10.286 12.2167 9.49467 12.8001 8.91122C13.3836 8.32778 14.1749 8 15 8C15.8251 8 16.6164 8.32778 17.1999 8.91122C17.7833 9.49467 18.1111 10.286 18.1111 11.1111C18.1111 11.9362 17.7833 12.7276 17.1999 13.311C16.6164 13.8944 15.8251 14.2222 15 14.2222C14.1749 14.2222 13.3836 13.8944 12.8001 13.311C12.2167 12.7276 11.8889 11.9362 11.8889 11.1111ZM11.8889 15.7778C10.8575 15.7778 9.86834 16.1875 9.13903 16.9168C8.40972 17.6461 8 18.6353 8 19.6667C8 20.2855 8.24583 20.879 8.68342 21.3166C9.121 21.7542 9.71449 22 10.3333 22H19.6667C20.2855 22 20.879 21.7542 21.3166 21.3166C21.7542 20.879 22 20.2855 22 19.6667C22 18.6353 21.5903 17.6461 20.861 16.9168C20.1317 16.1875 19.1425 15.7778 18.1111 15.7778H11.8889Z" fill="white"/>
</svg>
