<svg width="29" height="23" viewBox="0 0 29 23" fill="none" xmlns="http://www.w3.org/2000/svg">
<path d="M8.31641 10.2185C8.31641 10.513 8.43485 10.7954 8.64569 11.0037C8.85653 11.2119 9.14249 11.3289 9.44066 11.3289C9.73883 11.3289 10.0248 11.2119 10.2356 11.0037C10.4465 10.7954 10.5649 10.513 10.5649 10.2185C10.5649 9.92404 10.4465 9.64161 10.2356 9.43337C10.0248 9.22514 9.73883 9.10815 9.44066 9.10815C9.14249 9.10815 8.85653 9.22514 8.64569 9.43337C8.43485 9.64161 8.31641 9.92404 8.31641 10.2185ZM18.4347 10.2185C18.4347 10.513 18.5531 10.7954 18.7639 11.0037C18.9748 11.2119 19.2607 11.3289 19.5589 11.3289C19.8571 11.3289 20.143 11.2119 20.3539 11.0037C20.5647 10.7954 20.6832 10.513 20.6832 10.2185C20.6832 9.92404 20.5647 9.64161 20.3539 9.43337C20.143 9.22514 19.8571 9.10815 19.5589 9.10815C19.2607 9.10815 18.9748 9.22514 18.7639 9.43337C18.5531 9.64161 18.4347 9.92404 18.4347 10.2185Z" stroke="#959595" stroke-width="2"/>
<path d="M1 17.6892C1 12.3572 2.92921 5.31079 4.85618 2.4527C4.85618 2.4527 6.78539 1.5 14.5 1.5C22.2146 1.5 24.1416 2.45492 24.1416 2.45492C26.0708 5.31079 28 12.3572 28 17.6892C27.3569 18.6441 25.1062 20.7383 21.25 21.5L17.8548 17.3117C15.6469 17.8179 13.3509 17.8179 11.143 17.3117L7.75 21.5C3.89382 20.7383 1.64307 18.6419 1 17.6892Z" stroke="#959595" stroke-width="2" stroke-linecap="round" stroke-linejoin="round"/>
<path d="M7.75 15.786C8.33686 16.3656 9.57129 16.9475 11.143 17.3117C13.3516 17.8182 15.6484 17.8182 17.857 17.3117C19.4287 16.9475 20.6609 16.3656 21.25 15.786" stroke="#959595" stroke-width="2" stroke-linecap="round" stroke-linejoin="round"/>
</svg>
