<svg width="18" height="12" viewBox="0 0 18 12" fill="none" xmlns="http://www.w3.org/2000/svg">
<path d="M6.60536 6C6.60536 6.5467 6.84895 7.07102 7.28255 7.45759C7.71614 7.84417 8.30422 8.06135 8.91742 8.06135C9.53062 8.06135 10.1187 7.84417 10.5523 7.45759C10.9859 7.07102 11.2295 6.5467 11.2295 6C11.2295 5.4533 10.9859 4.92898 10.5523 4.54241C10.1187 4.15583 9.53062 3.93865 8.91742 3.93865C8.30422 3.93865 7.71614 4.15583 7.28255 4.54241C6.84895 4.92898 6.60536 5.4533 6.60536 6ZM17.8808 5.52515C15.9238 1.84969 12.9656 0 8.99999 0C5.03233 0 2.0762 1.84969 0.119206 5.52699C0.0407101 5.67518 0 5.83704 0 6.00092C0 6.1648 0.0407101 6.32666 0.119206 6.47485C2.0762 10.1503 5.0344 12 8.99999 12C12.9677 12 15.9238 10.1503 17.8808 6.47301C18.0397 6.17485 18.0397 5.82883 17.8808 5.52515ZM8.91742 9.23926C6.91088 9.23926 5.28418 7.78896 5.28418 6C5.28418 4.21104 6.91088 2.76074 8.91742 2.76074C10.924 2.76074 12.5507 4.21104 12.5507 6C12.5507 7.78896 10.924 9.23926 8.91742 9.23926Z" fill="#9B9B9B"/>
</svg>
