<svg width="66" height="64" viewBox="0 0 66 64" fill="none" xmlns="http://www.w3.org/2000/svg">
<path d="M59.1113 12.7294L59.1114 29.0255L44.8188 37.1094L39.0565 33.5039L39.0908 33.3983C39.4922 32.1649 39.6967 30.8721 39.6967 29.5687L39.6967 29.1116C39.6967 28.3251 39.6207 27.5398 39.4698 26.7669C39.4078 26.4491 39.3204 26.1367 39.2085 25.8328L39.1335 25.6291C38.8644 24.898 38.498 24.207 38.0446 23.5758C37.5366 22.8684 36.926 22.2432 36.2342 21.7219L35.9899 21.5377C35.2944 21.0136 34.5409 20.5751 33.7455 20.2313L33.6651 20.1965C32.9338 19.8805 32.1716 19.6465 31.3921 19.4987L30.461 19.3222L30.4106 19.6082L30.4106 12.7342L44.8188 4.31604L59.1113 12.7294Z" fill="#FF6600"/>
<path d="M0 12.7303L14.7612 4.31616L28.8121 12.7303V19.5965L28.7043 19.6183C27.4392 19.8744 26.2232 20.3313 25.1024 20.9716L24.7097 21.1959C24.0331 21.5825 23.3962 22.0346 22.8082 22.5459C22.5666 22.7561 22.3425 22.9856 22.1382 23.2322L22.0014 23.3973C21.5093 23.9915 21.1013 24.6506 20.7889 25.3561C20.4391 26.1462 20.212 26.9851 20.1156 27.8439L20.0814 28.1481C19.9844 29.0117 19.9905 29.8837 20.0994 30.7459L20.1104 30.833C20.2105 31.6258 20.397 32.4052 20.6664 33.1574L20.9881 34.0554L21.2597 33.9589L14.7262 37.1096L0 29.0106L0 12.7303Z" fill="#FF6600"/>
<path d="M14.7266 56.1291V39.0766L22.0897 35.4656L22.214 35.5915C22.7704 36.1551 23.3725 36.6717 24.0142 37.1359L24.403 37.4171C24.9932 37.8442 25.6281 38.2059 26.2964 38.496L26.5103 38.5889C27.1884 38.8832 27.9026 39.086 28.6342 39.1918C29.3899 39.3012 30.1568 39.308 30.9143 39.2121L31.0141 39.1995C31.8891 39.0887 32.7428 38.8483 33.5471 38.4862L33.7501 38.3949C34.7209 37.9578 35.618 37.3727 36.4092 36.6603L38.0964 35.1414L44.8192 39.0245V56.2176L29.8082 63.9995L14.7266 56.1291Z" fill="#FF6600"/>
<circle cx="29.7695" cy="29.3679" r="8" fill="#FF6600"/>
<path d="M34.0635 29.2552C33.995 29.9333 33.722 30.5938 33.2449 31.1362C33.1996 31.191 33.1418 31.2556 33.0549 31.3196C32.8089 31.5069 32.4576 31.5954 32.1149 31.464C31.8278 31.36 31.5347 31.0802 31.5347 30.6788C31.5347 30.4846 31.6043 30.3349 31.634 30.2709C31.635 30.2688 31.6359 30.2668 31.6368 30.2649C32.403 28.5095 31.7735 26.4353 30.1003 25.2431C29.8895 25.0938 29.6645 24.9536 29.4294 24.8328C29.6307 25.9679 29.2547 27.1819 28.3162 27.9983C28.0582 28.2227 27.7807 28.4071 27.5285 28.5721C27.5081 28.5854 27.4878 28.5986 27.4678 28.6117C27.2544 28.7511 27.0609 28.8775 26.8804 29.0171L26.3478 29.5507C26.1387 29.7601 25.9765 29.977 25.8589 30.2123L25.8524 30.2253L25.8452 30.2379L25.7603 30.3856C25.1936 31.5885 25.573 33.0202 26.7216 33.9417L34.0635 29.2552ZM34.0635 29.2552C34.3869 29.8672 34.5396 30.5566 34.4912 31.22C34.4633 31.5226 34.4243 31.7808 34.3274 32.0289L34.3173 32.0546L34.3101 32.0814C34.2258 32.3956 34.0648 32.7235 33.8583 33.021L33.8577 33.0219C33.1878 33.9912 31.9896 34.7044 30.6916 34.8477L30.6909 34.8478C29.2371 35.0104 27.7519 34.7652 26.7216 33.9417L34.0635 29.2552ZM27.9148 33.5804L26.7066 32.6795H27.2357C27.1053 32.3765 27.0397 32.0498 27.0514 31.7315C27.0525 31.5963 27.0728 31.4673 27.1115 31.341C27.2423 30.7608 27.6025 30.3918 27.9368 30.1139C28.034 30.0332 28.1493 29.9443 28.2551 29.8628C28.3177 29.8146 28.377 29.769 28.4272 29.7291C28.5802 29.6075 28.7108 29.4932 28.8197 29.3686L28.8197 29.3686L28.8211 29.3669C28.9494 29.2214 29.073 29.022 29.1883 28.7978L29.6548 27.8907L30.086 28.8151C30.3452 29.3707 30.3563 29.8811 30.2555 30.4223L30.2555 30.4223L30.2548 30.4259C30.2269 30.5695 30.1902 30.704 30.1572 30.821C30.152 30.8395 30.1469 30.8575 30.142 30.875C30.1142 30.9735 30.0905 31.0572 30.071 31.1418C30.0275 31.3305 30.0173 31.4744 30.0524 31.6206C30.1476 31.9836 30.4965 32.4087 31.1888 32.5504L32.1896 32.7552L31.4139 33.4199C30.8556 33.8983 29.8852 34.3566 28.8636 34.0407C28.5397 33.9571 28.1608 33.7638 27.9148 33.5804Z" fill="#221F2F" stroke="#221F2F"/>
<path d="M15.0459 7.54175L25.6103 13.7725" stroke="#221F2F" stroke-width="1.5" stroke-linecap="round"/>
<path d="M44.4493 7.48901L33.6738 13.6167" stroke="#221F2F" stroke-width="1.5" stroke-linecap="round"/>
<path d="M56.9844 14.4285L56.9844 26.89" stroke="#221F2F" stroke-width="1.5" stroke-linecap="round"/>
<path d="M3.20117 28.2019L13.7656 33.7768" stroke="#221F2F" stroke-width="1.5" stroke-linecap="round"/>
<path d="M17.9277 55.0925L27.6124 59.9143" stroke="#221F2F" stroke-width="1.5" stroke-linecap="round"/>
<path d="M32.3262 59.9148L42.2573 54.7648" stroke="#221F2F" stroke-width="1.5" stroke-linecap="round"/>
</svg>
