<svg width="29" height="23" viewBox="0 0 29 23" fill="none" xmlns="http://www.w3.org/2000/svg">
<path d="M14.4795 15.4763L18.8562 19.7766C20.4762 21.3691 21.2875 22.1659 22.1367 21.9711C22.9845 21.7774 23.2761 20.7298 23.858 18.6333L27.0845 7.00398C27.9822 3.77466 28.4304 2.16116 27.4341 1.36433C26.4378 0.567498 24.7112 1.16016 21.2578 2.34433L5.23867 7.84281C2.47656 8.79131 1.0955 9.26497 1.00775 10.0793C0.997417 10.1623 0.997417 10.246 1.00775 10.329C1.0928 11.1445 2.47116 11.6216 5.23057 12.5771C6.47933 13.01 7.10438 13.227 7.55258 13.6411C7.60298 13.6878 7.65158 13.736 7.69838 13.7858C8.11148 14.2291 8.28698 14.8125 8.63934 15.9745L9.29949 18.1526C9.64104 19.2843 9.81249 19.8513 10.262 19.9283C10.7116 20.0053 11.1017 19.5363 11.8834 18.5971L14.4795 15.4763ZM14.4795 15.4763L14.0515 15.0913C13.5628 14.6503 13.3185 14.431 13.3185 14.158C13.3185 13.885 13.5615 13.6645 14.0515 13.2246L18.8751 8.87997" stroke="#959595" stroke-width="2" stroke-linecap="round" stroke-linejoin="round"/>
</svg>
