<svg width="29" height="19" viewBox="0 0 29 19" fill="none" xmlns="http://www.w3.org/2000/svg">
<path d="M17.1999 7.83208V2.90412C17.1999 1.79347 16.9961 1.5708 15.877 1.5708L12.7045 1.50013C11.7163 1.50013 11.2222 1.50013 11.0224 1.81613C10.8226 2.13213 11.044 2.56546 11.4854 3.42945C11.7311 3.90945 11.8634 4.25744 11.8634 4.79611V8.34274C11.8634 9.46273 11.8634 10.0241 11.4314 10.1907C10.9994 10.3561 10.6417 9.98006 9.92349 9.22807C8.1685 7.38275 7.25321 5.07877 6.65246 2.56679C6.52826 2.0468 6.46616 1.7868 6.27986 1.6428C6.09356 1.4988 5.82762 1.50013 5.29842 1.50013H2.32844C1.67774 1.50013 1.35239 1.50013 1.14854 1.7268C0.946043 1.9548 0.985193 2.24546 1.06349 2.82546C1.77629 8.06141 6.43781 16.6467 15.0494 17.4653C16.5749 17.6093 17.1999 17.2027 17.1999 15.552C17.1999 14.616 17.1797 13.104 18.3717 12.9054C18.9968 12.8014 19.4166 13.0214 20.1146 13.5987C21.3242 14.6014 21.9587 15.8253 22.4001 16.7547C22.6931 17.3707 22.9104 17.5 23.5989 17.5H26.3988C27.8136 17.5 28.1983 17.1587 27.5679 15.8467C26.8554 14.3753 25.8466 13.0628 24.6033 11.9894C23.7447 11.2601 23.3168 10.8961 23.2938 10.6267C23.2682 10.3587 23.5827 9.97873 24.2118 9.21874C25.4268 7.74941 27.0819 5.4441 27.8541 2.99746C28.2375 1.78413 27.877 1.50013 26.6337 1.50013H24.1187C22.8996 1.50013 22.901 1.4588 22.6134 2.82412C22.1463 5.03877 20.6181 7.16809 19.1817 8.61741C18.5 9.3054 18.0882 9.72007 17.663 9.55073C17.2377 9.3814 17.1999 8.86674 17.1999 7.83208Z" stroke="#959595" stroke-width="2" stroke-linecap="round" stroke-linejoin="round"/>
</svg>
